<?xml version="1.0" encoding="UTF-8" standalone="no"?>
<!-- Created with Inkscape (http://www.inkscape.org/) -->

<svg
   xmlns:dc="http://purl.org/dc/elements/1.1/"
   xmlns:cc="http://creativecommons.org/ns#"
   xmlns:rdf="http://www.w3.org/1999/02/22-rdf-syntax-ns#"
   xmlns:svg="http://www.w3.org/2000/svg"
   xmlns="http://www.w3.org/2000/svg"
   xmlns:sodipodi="http://sodipodi.sourceforge.net/DTD/sodipodi-0.dtd"
   xmlns:inkscape="http://www.inkscape.org/namespaces/inkscape"
   width="187.67964mm"
   height="134.23528mm"
   viewBox="0 0 665.00661 475.63677"
   id="svg2"
   version="1.1"
   inkscape:version="0.92.3 (2405546, 2018-03-11)"
   sodipodi:docname="crewunited_vertical.svg"
   inkscape:export-filename="C:\Dropbox\crewunited_vertical.png"
   inkscape:export-xdpi="406.01001"
   inkscape:export-ydpi="406.01001">
  <defs
     id="defs4">
    <clipPath
       id="clipPath4150"
       clipPathUnits="userSpaceOnUse">
      <path
         inkscape:connector-curvature="0"
         id="path4152"
         d="M 0,703.524 H 959 V 0 H 0 Z" />
    </clipPath>
  </defs>
  <sodipodi:namedview
     id="base"
     pagecolor="#ffffff"
     bordercolor="#666666"
     borderopacity="1.0"
     inkscape:pageopacity="1"
     inkscape:pageshadow="2"
     inkscape:zoom="0.90509668"
     inkscape:cx="-246.49382"
     inkscape:cy="166.41333"
     inkscape:document-units="px"
     inkscape:current-layer="g4146"
     showgrid="false"
     inkscape:window-width="2114"
     inkscape:window-height="1438"
     inkscape:window-x="1030"
     inkscape:window-y="340"
     inkscape:window-maximized="0"
     fit-margin-top="6"
     fit-margin-left="6"
     fit-margin-right="6"
     fit-margin-bottom="6"
     showborder="true"
     inkscape:showpageshadow="false"
     borderlayer="true" />
  <metadata
     id="metadata7">
    <rdf:RDF>
      <cc:Work
         rdf:about="">
        <dc:format>image/svg+xml</dc:format>
        <dc:type
           rdf:resource="http://purl.org/dc/dcmitype/StillImage" />
        <dc:title></dc:title>
      </cc:Work>
    </rdf:RDF>
  </metadata>
  <g
     inkscape:label="Layer 1"
     inkscape:groupmode="layer"
     id="layer1"
     transform="translate(-48.664568,-20.910308)">
    <g
       style="fill:#000000"
       id="g4146"
       transform="matrix(1.25,0,0,-1.25,-188.36134,718.76278)">
      <g
         id="g4778">
        <g
           clip-path="url(#clipPath4150)"
           id="g4148"
           style="fill:#000000">
          <g
             transform="translate(452.6679,368.8075)"
             id="g4154"
             style="fill:#000000" />
          <g
             transform="translate(465.7228,473.0495)"
             id="g4158"
             style="fill:#000000" />
          <g
             transform="translate(522.6307,476.5519)"
             id="g4162"
             style="fill:#000000">
            <g
               id="g4774">
              <path
                 inkscape:connector-curvature="0"
                 id="path4156"
                 transform="matrix(0.8,0,0,-0.8,-390.58435,326.50026)"
                 d="m 406.94336,327.22266 c -30.2825,0 -54.83008,24.55023 -54.83008,54.83398 0,9.32414 2.33397,18.09939 6.43945,25.78711 -15.3153,-8.97859 -32.21195,-13.21099 -51.27343,-13.22461 -0.025,0 -0.0519,-0.004 -0.0781,-0.004 -3.74875,0 -7.4475,0.21211 -11.09375,0.59961 -3.81,0.40625 -7.55086,1.03039 -11.22461,1.83789 -46.5,10.21125 -81.30859,51.62516 -81.30859,101.19141 0,57.2325 46.3957,103.62891 103.62695,103.62891 l 12.125,-0.73047 c 3.57,-0.41625 7.07735,-1.02297 10.52735,-1.79297 0.58375,-0.13 1.17,-0.25453 1.75,-0.39453 13.925,-3.3625 26.74625,-9.54117 37.84375,-17.88867 l 59.98632,-48.33399 c 18.98044,21.41337 46.67009,34.92774 77.53516,34.92774 57.2325,0 103.62891,-46.39766 103.62891,-103.62891 0,-57.2325 -46.39641,-103.62695 -103.62891,-103.62695 -5.98125,0 -11.83781,0.51593 -17.53906,1.49218 l -58.31641,-29.14257 0.0664,0.11914 c -7.30875,-3.61 -15.53258,-5.65039 -24.23633,-5.65039 z m 73.19141,48.32617 113.16015,55.38281 c 3.945,10.28 6.12891,21.43086 6.12891,33.09961 0,51.06125 -41.39383,92.45508 -92.45508,92.45508 -27.35005,0 -51.90446,-11.8909 -68.82813,-30.76953 l 21.82227,-17.58399 c 9.0525,11.3625 22.99609,18.65235 38.65234,18.65235 27.2875,0 49.40821,-22.12071 49.40821,-49.40821 0,-27.28625 -22.12071,-49.4082 -49.40821,-49.4082 -19.28,0 -35.96937,11.05266 -44.10937,27.16016 l -55.42578,-27.29297 c -3.12498,-1.91126 -5.22266,-5.33447 -5.22266,-9.26563 0,-6.00875 4.87211,-10.88086 10.88086,-10.88086 1.73625,0 3.37188,0.41758 4.82813,1.14258 l 7.52734,3.66992 0.002,0.002 10.06641,4.91015 c 8.29875,-14.17625 20.24508,-25.95492 34.58008,-34.01367 5.77625,-3.24625 11.93633,-5.89156 18.39258,-7.85156 z m -172.9336,30.24023 c 51.06125,0 92.45508,41.39383 92.45508,92.45508 0,47.38125 -35.64898,86.41383 -81.58398,91.79883 l -11.35743,0.64453 c -50.83625,-0.265 -91.96679,-41.54586 -91.96679,-92.44336 0,-43.8125 30.48453,-80.48062 71.39453,-90.01562 3.6625,-0.85375 7.4018,-1.50836 11.2168,-1.91211 3.23499,-0.3425 6.51679,-0.52735 9.84179,-0.52735 z m 82.10352,29.25782 89.73633,42.62109 -78.26368,65.13867 c 6.44,-13.5 10.05274,-28.60875 10.05274,-44.5625 0,-23.79625 -8.04039,-45.70352 -21.52539,-63.19726 z"
                 style="fill:#000000;fill-opacity:1;fill-rule:nonzero;stroke:none" />
              <path
                 d="M 0,0 -1.781,8.728 C -14.419,6.611 -25.776,0.734 -34.674,-7.717 l 8.57,-4.27 C -18.798,-5.84 -9.846,-1.593 0,0"
                 style="fill:#000000;fill-opacity:1;fill-rule:nonzero;stroke:none"
                 id="path4164"
                 inkscape:connector-curvature="0" />
            </g>
          </g>
          <g
             transform="translate(231.5596,243.5377)"
             id="g4166"
             style="fill:#000000">
            <path
               inkscape:connector-curvature="0"
               id="path4168"
               style="fill:#000000;fill-opacity:1;fill-rule:nonzero;stroke:none"
               d="m 0,0 c 11.684,0 17.479,-6.808 17.479,-6.808 l -4.231,-6.255 c 0,0 -4.968,5.335 -12.88,5.335 -9.383,0 -16.191,-6.991 -16.191,-16.558 0,-9.476 6.808,-16.743 16.467,-16.743 8.648,0 14.352,6.255 14.352,6.255 l 3.587,-6.532 c 0,0 -6.439,-7.451 -18.583,-7.451 -14.627,0 -24.931,10.396 -24.931,24.378 C -24.931,-10.579 -14.627,0 0,0" />
          </g>
          <g
             transform="translate(260.4487,242.4341)"
             id="g4170"
             style="fill:#000000">
            <path
               inkscape:connector-curvature="0"
               id="path4172"
               style="fill:#000000;fill-opacity:1;fill-rule:nonzero;stroke:none"
               d="m 0,0 h 8.647 v -8.096 c 0,-1.931 -0.184,-3.496 -0.184,-3.496 h 0.184 c 2.116,6.808 7.544,12.144 14.72,12.144 1.195,0 2.3,-0.184 2.3,-0.184 v -8.832 c 0,0 -1.196,0.276 -2.576,0.276 -5.704,0 -10.948,-4.047 -13.064,-10.947 -0.827,-2.668 -1.104,-5.52 -1.104,-8.372 V -46.55 H 0 Z" />
          </g>
          <g
             transform="translate(325.9521,224.5865)"
             id="g4174"
             style="fill:#000000">
            <path
               inkscape:connector-curvature="0"
               id="path4176"
               style="fill:#000000;fill-opacity:1;fill-rule:nonzero;stroke:none"
               d="M 0,0 C -0.276,8.004 -5.244,11.868 -11.224,11.868 -18.031,11.868 -23.551,7.636 -24.839,0 Z m -11.04,18.951 c 13.155,0 20.147,-9.751 20.147,-21.803 0,-1.196 -0.276,-3.863 -0.276,-3.863 h -33.946 c 0.46,-10.212 7.727,-15.363 16.007,-15.363 8.004,0 13.799,5.428 13.799,5.428 l 3.68,-6.533 c 0,0 -6.899,-6.623 -18.031,-6.623 -14.627,0 -24.654,10.579 -24.654,24.378 0,14.812 10.027,24.379 23.274,24.379" />
          </g>
          <g
             transform="translate(340.6729,242.4341)"
             id="g4178"
             style="fill:#000000">
            <path
               inkscape:connector-curvature="0"
               id="path4180"
               style="fill:#000000;fill-opacity:1;fill-rule:nonzero;stroke:none"
               d="m 0,0 h 9.476 l 9.66,-32.658 c 0.735,-2.393 1.103,-4.968 1.195,-4.968 h 0.185 c 0,0 0.46,2.575 1.195,4.968 l 10.12,32.566 h 8.188 l 10.027,-32.566 c 0.736,-2.393 1.288,-4.968 1.288,-4.968 h 0.184 c 0,0 0.368,2.575 1.104,4.968 L 62.373,0 h 9.384 L 56.762,-46.55 h -9.844 l -9.659,29.899 c -0.737,2.391 -1.288,5.059 -1.288,5.059 h -0.185 c 0,0 -0.552,-2.668 -1.287,-5.059 L 24.931,-46.55 h -9.935 z" />
          </g>
          <g
             transform="translate(444.3555,242.4341)"
             id="g4182"
             style="fill:#000000">
            <path
               inkscape:connector-curvature="0"
               id="path4184"
               style="fill:#000000;fill-opacity:1;fill-rule:nonzero;stroke:none"
               d="m 0,0 h 8.924 v -27.783 c 0,-6.44 1.288,-11.591 8.739,-11.591 9.476,0 15.087,8.371 15.087,17.571 V 0 h 8.924 v -46.55 h -8.648 v 6.164 c 0,1.932 0.184,3.404 0.184,3.404 H 33.026 C 31.095,-41.582 25.022,-47.653 15.915,-47.653 5.428,-47.653 0,-42.134 0,-29.807 Z" />
          </g>
          <g
             transform="translate(500.1982,242.4341)"
             id="g4186"
             style="fill:#000000">
            <path
               inkscape:connector-curvature="0"
               id="path4188"
               style="fill:#000000;fill-opacity:1;fill-rule:nonzero;stroke:none"
               d="m 0,0 h 8.648 v -6.164 c 0,-1.84 -0.184,-3.403 -0.184,-3.403 h 0.184 c 1.84,4.047 7.36,10.671 17.479,10.671 10.947,0 16.007,-5.98 16.007,-17.847 V -46.55 h -8.923 v 27.782 c 0,6.533 -1.38,11.684 -8.832,11.684 -7.083,0 -12.787,-4.691 -14.719,-11.407 -0.552,-1.84 -0.736,-3.956 -0.736,-6.256 V -46.55 H 0 Z" />
          </g>
          <path
             inkscape:connector-curvature="0"
             id="path4190"
             style="fill:#000000;fill-opacity:1;fill-rule:nonzero;stroke:none"
             d="m 555.857,242.434 h 8.924 v -46.55 h -8.924 z m -0.091,18.399 h 9.016 v -9.107 h -9.016 z" />
          <g
             transform="translate(580.8818,234.6148)"
             id="g4192"
             style="fill:#000000">
            <path
               inkscape:connector-curvature="0"
               id="path4194"
               style="fill:#000000;fill-opacity:1;fill-rule:nonzero;stroke:none"
               d="M 0,0 H -6.072 V 7.175 H 0.275 V 20.606 H 8.923 V 7.175 H 20.146 V 0 H 8.923 v -20.699 c 0,-9.292 6.532,-10.488 9.935,-10.488 1.288,0 2.117,0.184 2.117,0.184 v -7.911 c 0,0 -1.288,-0.185 -3.128,-0.185 -5.98,0 -17.847,1.84 -17.847,17.388 z" />
          </g>
          <g
             transform="translate(643.1631,224.5865)"
             id="g4196"
             style="fill:#000000">
            <path
               inkscape:connector-curvature="0"
               id="path4198"
               style="fill:#000000;fill-opacity:1;fill-rule:nonzero;stroke:none"
               d="M 0,0 C -0.276,8.004 -5.243,11.868 -11.224,11.868 -18.031,11.868 -23.551,7.636 -24.839,0 Z m -11.039,18.951 c 13.155,0 20.146,-9.751 20.146,-21.803 0,-1.196 -0.275,-3.863 -0.275,-3.863 h -33.946 c 0.46,-10.212 7.727,-15.363 16.007,-15.363 8.003,0 13.798,5.428 13.798,5.428 l 3.681,-6.533 c 0,0 -6.9,-6.623 -18.031,-6.623 -14.628,0 -24.655,10.579 -24.655,24.378 0,14.812 10.027,24.379 23.275,24.379" />
          </g>
          <g
             transform="translate(682.5391,202.5084)"
             id="g4200"
             style="fill:#000000">
            <path
               inkscape:connector-curvature="0"
               id="path4202"
               style="fill:#000000;fill-opacity:1;fill-rule:nonzero;stroke:none"
               d="m 0,0 c 6.899,0 13.432,4.875 13.432,16.743 0,8.279 -4.325,16.559 -13.157,16.559 -7.359,0 -13.43,-6.072 -13.43,-16.652 C -13.155,6.531 -7.728,0 0,0 m -1.196,41.029 c 10.763,0 14.351,-7.359 14.351,-7.359 h 0.184 c 0,0 -0.184,1.38 -0.184,3.128 v 21.526 h 8.924 V -6.624 h -8.464 v 4.416 c 0,1.84 0.092,3.128 0.092,3.128 h -0.184 c 0,0 -3.772,-8.648 -15.271,-8.648 -12.604,0 -20.515,9.936 -20.515,24.378 0,14.812 8.74,24.379 21.067,24.379" />
          </g>
        </g>
      </g>
    </g>
  </g>
</svg>
